<?xml version="1.0" standalone="no"?>
<!DOCTYPE svg PUBLIC "-//W3C//DTD SVG 20010904//EN"
 "http://www.w3.org/TR/2001/REC-SVG-20010904/DTD/svg10.dtd">
<svg version="1.0" xmlns="http://www.w3.org/2000/svg"
 width="32.000000pt" height="32.000000pt" viewBox="0 0 32.000000 32.000000"
 preserveAspectRatio="xMidYMid meet">
<metadata>
Created by potrace 1.16, written by Peter Selinger 2001-2019
</metadata>
<g transform="translate(0.000000,32.000000) scale(0.005000,-0.006667)"
fill="#000000" stroke="none">
<path d="M0 2400 l0 -2400 3200 0 3200 0 0 2400 0 2400 -3200 0 -3200 0 0
-2400z m3605 740 c895 -42 1661 -179 2105 -375 l100 -45 218 0 c119 1 236 5
259 9 l42 8 -41 -61 c-62 -92 -168 -226 -179 -226 -5 0 -9 -25 -9 -55 0 -73
-31 -134 -102 -202 -94 -88 -247 -173 -430 -238 -63 -22 -82 -34 -102 -64 -14
-20 -26 -47 -26 -58 0 -22 -3 -22 -212 -26 -182 -3 -233 -7 -348 -31 -775
-156 -1935 -194 -2890 -95 -664 69 -1203 193 -1536 355 l-111 54 -130 0 c-92
0 -134 4 -141 13 -7 9 3 30 38 78 l49 67 -21 41 c-45 91 -27 184 50 273 44 49
164 130 265 179 84 40 86 42 162 147 56 79 75 113 72 130 l-4 23 326 -5 c179
-2 344 -8 366 -11 25 -4 107 3 215 19 318 47 761 88 1085 99 213 8 734 6 930
-3z"/>
<path d="M2760 3114 c-445 -15 -888 -55 -1255 -115 -101 -16 -171 -19 -452
-19 -283 0 -332 -2 -327 -14 3 -8 -24 -54 -62 -105 -68 -90 -69 -91 -179 -145
-280 -137 -377 -282 -291 -436 13 -22 11 -28 -16 -68 -44 -63 -35 -72 67 -72
82 0 90 -2 153 -39 184 -107 495 -210 850 -281 397 -79 724 -116 1357 -155
162 -10 885 -7 1080 4 508 30 884 74 1250 145 107 21 159 26 294 26 144 0 162
2 151 15 -10 12 -8 21 13 47 20 27 44 40 128 68 210 70 402 182 474 277 44 58
59 104 52 164 -5 38 -3 49 8 49 15 0 112 109 162 181 l31 44 -221 -3 c-219 -3
-221 -3 -266 21 -25 14 -82 40 -126 57 -453 181 -1090 295 -1935 344 -116 7
-809 14 -940 10z m988 -70 c72 -6 81 -9 70 -22 -10 -13 -10 -14 0 -8 6 4 12 2
12 -3 0 -6 -4 -11 -10 -11 -5 0 -10 -5 -10 -11 0 -5 6 -7 13 -3 9 6 9 5 0 -8
-7 -8 -9 -18 -5 -23 4 -4 -103 -5 -237 -1 -134 3 -292 6 -350 6 -72 0 -101 3
-91 10 11 7 11 10 2 10 -7 0 -12 8 -10 18 1 9 -1 23 -5 30 -5 7 -3 12 5 13 7
0 4 5 -7 10 -22 10 476 4 623 -7z m-2371 -119 c56 -23 54 -73 -9 -199 -38 -75
-111 -154 -165 -178 -32 -14 -55 -17 -90 -13 -66 9 -81 -5 -75 -71 l4 -52 155
-1 c105 -1 161 3 170 11 28 23 353 485 353 502 0 16 23 17 335 15 184 -2 335
-7 335 -12 0 -5 -17 -29 -37 -54 l-37 -45 -210 3 -210 4 -57 -80 c-32 -44 -58
-83 -58 -87 -1 -5 82 -8 184 -8 104 0 185 -4 185 -9 0 -7 -49 -71 -76 -100 -3
-3 -83 -4 -180 -2 -96 1 -184 -1 -195 -4 -16 -5 -99 -113 -99 -129 0 -4 134
-6 298 -6 l298 0 60 43 c74 54 246 159 251 153 3 -2 -11 -28 -31 -58 -19 -29
-42 -70 -51 -90 l-15 -38 159 0 160 0 38 120 38 120 113 0 c61 0 112 -3 112
-7 0 -5 -16 -57 -35 -117 -19 -60 -35 -111 -35 -113 0 -1 56 -3 125 -3 l126 0
130 111 c71 61 127 115 124 120 -4 5 46 9 120 9 97 0 126 -3 123 -12 -3 -7
-62 -61 -132 -120 l-127 -108 116 0 117 0 49 48 c144 138 345 203 578 189 117
-7 182 -28 217 -70 23 -27 26 -38 22 -87 -3 -30 -7 -62 -9 -70 -3 -12 9 -16
62 -18 l65 -3 85 120 84 120 123 1 124 0 -38 -52 c-21 -29 -58 -79 -82 -112
-26 -34 -40 -62 -35 -67 5 -5 124 -8 268 -7 l259 3 42 55 42 55 -109 3 c-64 1
-117 -2 -129 -8 -29 -15 -25 -6 20 55 l41 55 332 1 c183 0 358 4 390 8 31 4
57 6 57 6 0 -1 -25 -27 -55 -58 l-55 -57 -132 0 -133 0 -37 -54 c-21 -30 -38
-57 -38 -60 0 -3 61 -6 136 -6 120 0 135 -2 124 -15 -10 -12 -40 -15 -150 -15
l-138 0 -24 -29 c-75 -92 -313 -425 -312 -437 2 -11 -21 -14 -112 -14 -62 0
-115 3 -117 8 -3 4 69 108 159 232 90 124 164 228 164 233 0 9 -522 9 -535 -1
-15 -10 -223 -294 -249 -340 -7 -11 28 -13 190 -10 l199 3 -31 -30 c-16 -16
-38 -41 -47 -55 l-17 -25 -306 -5 c-269 -4 -305 -3 -301 10 2 8 67 104 144
211 78 108 149 209 158 223 l17 26 -65 0 -65 0 -34 -44 c-217 -284 -319 -369
-503 -416 -164 -42 -436 -34 -492 14 -31 27 -45 88 -32 146 12 53 70 155 134
234 l46 56 -120 0 -120 0 -275 -231 -275 -231 -138 0 c-131 1 -138 2 -135 21
2 11 34 113 73 228 38 114 69 209 69 210 0 2 -56 3 -124 3 l-124 0 -59 -47
c-32 -25 -84 -71 -115 -102 -32 -30 -58 -53 -58 -50 0 14 53 133 96 214 47 88
47 89 18 71 -16 -11 -47 -34 -70 -53 l-41 -33 -336 0 -336 0 -16 -30 c-13 -25
-13 -31 -2 -36 23 -8 401 0 420 10 17 8 17 5 -3 -34 -12 -23 -32 -53 -44 -65
l-23 -23 -334 5 c-184 3 -335 7 -337 8 -2 2 22 38 52 81 31 42 55 79 53 80 -6
6 -278 6 -284 0 -15 -15 9 -54 43 -67 l36 -14 -39 -44 -40 -45 -109 3 c-60 1
-115 7 -121 13 -8 7 -13 37 -13 84 l0 74 -102 0 -103 -1 -58 -79 c-32 -44 -56
-83 -54 -87 7 -11 -206 -4 -217 7 -4 4 17 42 48 84 l56 76 -48 0 c-36 0 -54 5
-67 20 -18 20 -17 20 59 20 60 0 79 4 91 18 52 62 345 485 345 498 0 13 36 15
298 13 220 -1 305 -5 329 -14z m1463 -1112 c52 -3 88 -9 80 -12 -8 -3 -17 -13
-18 -21 -11 -45 -10 -49 6 -44 9 3 4 -2 -12 -12 -27 -15 -49 -16 -254 -5 -124
6 -231 16 -237 21 -7 5 -14 7 -18 4 -3 -3 -4 2 -2 13 2 10 4 22 4 26 1 5 7 5
14 1 9 -5 9 -4 0 6 -6 7 -9 19 -6 27 5 13 30 15 177 9 94 -3 214 -9 266 -13z"/>
<path d="M865 2743 c-38 -53 -71 -100 -73 -105 -2 -4 55 -8 126 -8 127 0 130
0 170 30 57 41 94 99 90 142 l-3 33 -120 3 -120 2 -70 -97z"/>
<path d="M4100 2531 c-46 -10 -87 -32 -139 -75 l-43 -36 144 -1 c78 0 158 -1
177 -2 40 -2 57 18 48 55 -5 18 -21 31 -56 47 -51 22 -72 24 -131 12z"/>
<path d="M3950 2370 l-84 -5 -49 -60 c-87 -107 -117 -157 -117 -195 0 -19 4
-40 8 -47 14 -21 62 -33 139 -33 96 0 144 21 222 99 48 47 181 228 181 245 0
6 -168 4 -300 -4z"/>
<path d="M2906 2258 c-20 -62 -34 -113 -33 -115 4 -3 267 216 267 223 0 2 -45
4 -100 4 l-99 0 -35 -112z"/>
</g>
</svg>
